<svg xmlns="http://www.w3.org/2000/svg" width="60" height="70" viewBox="0, 0, 60, 70"><path d="M43.125 24.938c0-.701.612-1.313 1.313-1.313.7 0 1.312.612 1.312 1.313 0 .7-.612 1.312-1.312 1.312-.701 0-1.313-.612-1.313-1.312zM41.812 21c.701 0 1.313.612 1.313 1.312 0 .701-.612 1.313-1.313 1.313-.7 0-1.312-.612-1.312-1.313 0-.7.612-1.312 1.312-1.312zM47.062 23.625c-.7 0-1.312-.612-1.312-1.313 0-.7.612-1.312 1.312-1.312.701 0 1.313.612 1.313 1.312 0 .701-.612 1.313-1.313 1.313zM44.438 18.375c.7 0 1.312.612 1.312 1.313 0 .7-.612 1.312-1.312 1.312-.701 0-1.313-.612-1.313-1.312 0-.701.612-1.313 1.313-1.313zM16 19.25c.525 0 .875.35.875.875v1.75h1.75c.525 0 .875.35.875.875s-.35.875-.875.875h-1.75v1.75c0 .525-.35.875-.875.875s-.875-.35-.875-.875v-1.75h-1.75c-.525 0-.875-.35-.875-.875s.35-.875.875-.875h1.75v-1.75c0-.525.35-.875.875-.875zM47.413 35.612c-1.313 2.363-3.851 3.763-6.388 3.763-2.275 0-4.288-1.05-5.687-2.625H24.837c-1.399 1.575-3.412 2.625-5.687 2.625-2.712 0-5.162-1.487-6.475-3.763-.175-.437-.087-.962.35-1.224.438-.175.963-.088 1.225.349.963 1.838 2.888 2.888 4.9 2.888a5.675 5.675 0 0 0 5.687-5.687c0-.525.351-.876.875-.876.526 0 .875.351.875.876 0 1.049-.262 2.099-.699 3.062H34.2c-.437-.963-.7-2.013-.7-3.062 0-.525.35-.876.875-.876s.875.351.875.876a5.676 5.676 0 0 0 5.688 5.687c2.012 0 3.85-1.138 4.9-2.888.262-.437.787-.612 1.224-.349.438.262.613.787.351 1.224zM23 19.25c.525 0 .875.35.875.875v2.625c0 .962.788 1.75 1.75 1.75h8.75c.963 0 1.75-.788 1.75-1.75v-2.625c0-.525.35-.875.875-.875s.875.35.875.875v2.625a3.51 3.51 0 0 1-3.5 3.5h-8.75a3.51 3.51 0 0 1-3.5-3.5v-2.625c0-.525.35-.875.875-.875z"/><path d="M57.825 42.088c.087.437.175.875 0 1.399A5.49 5.49 0 0 1 52.312 49h-.962a5.556 5.556 0 0 1-5.075-3.325L44.088 40.6c-.176-.438 0-.962.437-1.137.438-.176.962 0 1.137.437l2.188 5.075a3.828 3.828 0 0 0 3.5 2.275h.962c2.1 0 3.763-1.662 3.763-3.763 0-.349 0-.7-.088-.962l-5.512-22.137c-.7-2.713-3.15-4.638-5.95-4.638h-4.637c-.526 0-1.05.175-1.488.612a3.84 3.84 0 0 1-2.712 1.138h-11.55a3.839 3.839 0 0 1-2.713-1.138c-.35-.349-.963-.612-1.487-.612H15.3c-2.8 0-5.25 1.925-5.95 4.638L3.838 42.525c-.088.35-.088.613-.088.962a3.734 3.734 0 0 0 3.762 3.763h1.05c1.488 0 2.888-.875 3.413-2.275l2.188-5.075c.174-.437.7-.613 1.137-.437.438.175.613.699.438 1.137l-2.188 5.075A5.556 5.556 0 0 1 8.475 49h-.963C4.45 49 2 46.55 2 43.4c0-.437.088-.875.175-1.312l5.6-22.138A7.858 7.858 0 0 1 15.387 14h4.638a3.84 3.84 0 0 1 2.712 1.137c.35.351.963.613 1.488.613h11.637c.526 0 1.05-.175 1.488-.613A3.843 3.843 0 0 1 40.062 14H44.7a7.857 7.857 0 0 1 7.612 5.95l5.513 22.138z"/><path d="M40.938 28a3.921 3.921 0 0 1 3.937 3.938 3.92 3.92 0 0 1-3.937 3.937A3.921 3.921 0 0 1 37 31.938 3.921 3.921 0 0 1 40.938 28zm0 1.75a2.166 2.166 0 0 0-2.188 2.188c0 1.224.963 2.187 2.188 2.187a2.167 2.167 0 0 0 2.187-2.187 2.166 2.166 0 0 0-2.187-2.188zM19.062 28A3.921 3.921 0 0 1 23 31.938a3.921 3.921 0 0 1-3.938 3.937 3.92 3.92 0 0 1-3.937-3.937A3.921 3.921 0 0 1 19.062 28zm0 1.75a2.166 2.166 0 0 0-2.187 2.188c0 1.224.962 2.187 2.187 2.187a2.166 2.166 0 0 0 2.188-2.187 2.166 2.166 0 0 0-2.188-2.188z" fill="#FF0400"/></svg>