<svg xmlns="http://www.w3.org/2000/svg" width="64" height="80" viewBox="0, 0, 64, 80"><path d="M54 14c2.2 0 4 1.8 4 4v44c0 2.2-1.8 4-4 4H10c-2.2 0-4-1.8-4-4V18c0-2.2 1.8-4 4-4h44zm0 2H10c-1.1 0-2 .9-2 2v44c0 1.1.9 2 2 2h44c1.1 0 2-.9 2-2V18c0-1.1-.9-2-2-2z"/><path d="M54 19.5c0-.8-.7-1.5-1.5-1.5s-1.5.7-1.5 1.5.7 1.5 1.5 1.5 1.5-.7 1.5-1.5zM54 60.5c0-.8-.7-1.5-1.5-1.5s-1.5.7-1.5 1.5.7 1.5 1.5 1.5 1.5-.7 1.5-1.5zM10 19.5c0 .8.7 1.5 1.5 1.5s1.5-.7 1.5-1.5-.7-1.5-1.5-1.5-1.5.7-1.5 1.5zM13 60.5c0-.8-.7-1.5-1.5-1.5s-1.5.7-1.5 1.5.7 1.5 1.5 1.5 1.5-.7 1.5-1.5z" fill="#FF0400"/><path d="M32 18.136c12.1 0 22 9.9 22 22s-9.9 22-22 22-22-9.9-22-22 9.9-22 22-22zm2.4 28.5c-.5.2-1.1.3-1.6.4l-2.8 13c.7.1 1.3.1 2 .1 2.2 0 4.4-.4 6.4-1.1l-4-12.4zm-5.1-.1l-8.9 9.8c2.2 1.7 4.8 2.8 7.8 3.4l2.7-12.7c-.6-.1-1.1-.3-1.6-.5zm8.1-2.036c-.4.4-.8.8-1.2 1.1l4.1 12.6c2.5-1.2 4.8-2.9 6.7-5l-9.6-8.7zm-11-.164l-12.6 4.1c1.2 2.5 2.9 4.8 5 6.7l8.7-9.6c-.4-.4-.8-.8-1.1-1.2zM38.9 41.1c-.1.6-.3 1.1-.5 1.6l9.8 8.9c1.7-2.3 2.8-4.9 3.4-7.7l-12.7-2.8zm-26.8-2.964c-.1.7-.1 1.3-.1 2 0 2.2.4 4.4 1.1 6.4l12.4-4c-.2-.5-.3-1.1-.4-1.6l-13-2.8zM32 35c-2.8 0-5 2.2-5 5s2.2 5 5 5 5-2.2 5-5-2.2-5-5-5zm18.9-1.4l-12.4 4c.2.5.3 1.1.4 1.6l13 2.8c.1-.7.1-1.3.1-2 0-2.2-.4-4.4-1.1-6.4zm-35.1-5.064c-1.7 2.3-2.8 4.9-3.4 7.7l12.7 2.8c.1-.6.3-1.1.5-1.6l-9.8-8.9zm29.4-3.4l-8.7 9.6c.4.4.8.8 1.1 1.2l12.6-4.1c-1.2-2.5-2.9-4.8-5-6.7zm-21.5-3.064c-2.5 1.2-4.8 2.9-6.7 5l9.6 8.7c.4-.4.8-.8 1.2-1.1l-4.1-12.6zm12.1-1.4l-2.7 12.7c.6.1 1.1.3 1.6.5l8.9-9.8c-2.2-1.7-4.8-2.8-7.8-3.4zm-3.8-.4c-2.2 0-4.4.4-6.4 1.1l4 12.4c.5-.2 1.1-.3 1.6-.4l2.8-13c-.7-.1-1.3-.1-2-.1z"/></svg>