<svg xmlns="http://www.w3.org/2000/svg" width="60" height="70" viewBox="0, 0, 60, 70"><path d="M44.504 53.817H15.398a3.869 3.869 0 0 1-3.864-3.864V20.847a3.869 3.869 0 0 1 3.864-3.864h29.106a3.868 3.868 0 0 1 3.863 3.864v29.106a3.868 3.868 0 0 1-3.863 3.864zM15.398 19.15c-.936 0-1.697.761-1.697 1.697v29.106c0 .936.761 1.697 1.697 1.697h29.106a1.7 1.7 0 0 0 1.697-1.697V20.847a1.7 1.7 0 0 0-1.697-1.697H15.398z"/><path d="M39.251 48.4H20.65a3.868 3.868 0 0 1-3.863-3.864V26.264A3.868 3.868 0 0 1 20.65 22.4h18.601a3.868 3.868 0 0 1 3.864 3.864v18.272a3.868 3.868 0 0 1-3.864 3.864zM20.65 24.567a1.7 1.7 0 0 0-1.697 1.697v18.272a1.7 1.7 0 0 0 1.697 1.697h18.601c.936 0 1.697-.761 1.697-1.697V26.264c0-.936-.761-1.697-1.697-1.697H20.65zM18.034 19.15a1.083 1.083 0 0 1-1.083-1.083v-7.584a1.083 1.083 0 0 1 2.166 0v7.584c0 .598-.485 1.083-1.083 1.083zM25.617 19.15a1.083 1.083 0 0 1-1.083-1.083v-7.584a1.083 1.083 0 0 1 2.167 0v7.584c0 .598-.485 1.083-1.084 1.083zM33.201 19.15a1.084 1.084 0 0 1-1.084-1.083v-7.584a1.084 1.084 0 0 1 2.167 0v7.584c0 .598-.485 1.083-1.083 1.083zM40.784 19.15a1.083 1.083 0 0 1-1.083-1.083v-7.584a1.083 1.083 0 0 1 2.166 0v7.584c0 .598-.485 1.083-1.083 1.083zM18.034 61.4a1.083 1.083 0 0 1-1.083-1.083v-7.584a1.083 1.083 0 0 1 2.166 0v7.584c0 .598-.485 1.083-1.083 1.083zM25.617 61.4a1.083 1.083 0 0 1-1.083-1.083v-7.584a1.083 1.083 0 0 1 2.167 0v7.584c0 .598-.485 1.083-1.084 1.083zM33.201 61.4a1.084 1.084 0 0 1-1.084-1.083v-7.584a1.084 1.084 0 0 1 2.167 0v7.584c0 .598-.485 1.083-1.083 1.083zM40.784 61.4a1.083 1.083 0 0 1-1.083-1.083v-7.584a1.083 1.083 0 0 1 2.166 0v7.584c0 .598-.485 1.083-1.083 1.083zM54.867 25.108h-7.583a1.083 1.083 0 0 1 0-2.166h7.583a1.083 1.083 0 1 1 0 2.166zM54.867 32.692h-7.583a1.083 1.083 0 0 1 0-2.167h7.583a1.083 1.083 0 1 1 0 2.167zM54.867 40.275h-7.583a1.083 1.083 0 0 1 0-2.167h7.583a1.084 1.084 0 1 1 0 2.167zM54.867 47.858h-7.583a1.083 1.083 0 0 1 0-2.166h7.583a1.083 1.083 0 1 1 0 2.166zM12.617 25.108H5.034a1.083 1.083 0 0 1 0-2.166h7.583a1.083 1.083 0 1 1 0 2.166zM12.617 32.692H5.034a1.083 1.083 0 0 1 0-2.167h7.583a1.083 1.083 0 1 1 0 2.167zM12.617 40.275H5.034a1.083 1.083 0 0 1 0-2.167h7.583a1.084 1.084 0 1 1 0 2.167zM12.617 47.858H5.034a1.083 1.083 0 0 1 0-2.166h7.583a1.083 1.083 0 1 1 0 2.166z"/><path d="M36.451 33.233H24.534a1.083 1.083 0 0 1 0-2.166h11.917a1.083 1.083 0 0 1 0 2.166zM32.117 39.733h-7.583a1.083 1.083 0 0 1 0-2.166h7.583a1.083 1.083 0 1 1 0 2.166z" fill="#FF0400"/></svg>