<svg xmlns="http://www.w3.org/2000/svg" width="60" height="70" viewBox="0, 0, 60, 70"><path d="M54.497 12.693c1.469 0 2.592 1.123 2.592 2.592v32.839c0 1.469-1.123 2.592-2.592 2.592H4.374c-1.469 0-2.592-1.123-2.592-2.592V15.285c0-1.469 1.123-2.592 2.592-2.592h50.123zm0 1.592H4.374c-.518 0-.864.346-.864.864v32.839c0 .519.346.864.864.864h50.123c.518 0 .864-.345.864-.864V15.149c0-.518-.346-.864-.864-.864z"/><path d="M53.632 17.014c0-.519-.345-.865-.864-.865H6.103c-.519 0-.864.346-.864.865v29.382c0 .518.345.864.864.864h37.159c.519 0 .864-.346.864-.864 0-.519-.345-.865-.864-.865H6.967V17.878h44.937v27.653h-1.728c-.519 0-.864.346-.864.865 0 .518.345.864.864.864h2.592c.519 0 .864-.346.864-.864V17.014z"/><path d="M47.583 46.396c0-.519-.345-.865-.864-.865-.518 0-.864.346-.864.865v.864c0 .518.346.864.864.864.519 0 .864-.346.864-.864v-.864z" fill="#FF0400"/><path d="M13.88 27.044c0 .315.346.525.864.525h18.148c.519 0 .864-.21.864-.525 0-.315-.345-.524-.864-.524H14.744c-.518 0-.864.209-.864.524zM34.621 30.025c.518 0 .864-.209.864-.524 0-.315-.346-.525-.864-.525h-9.506c-.519 0-.865.21-.865.525 0 .315.346.524.865.524h9.506zM13.88 29.501c0 .315.346.524.864.524h6.914c.518 0 .864-.209.864-.524 0-.315-.346-.525-.864-.525h-6.914c-.518 0-.864.21-.864.525zM13.88 31.958c0 .314.346.524.864.524h10.371c.518 0 .864-.21.864-.524 0-.315-.346-.525-.864-.525H14.744c-.518 0-.864.21-.864.525zM44.991 27.044c0-.315-.346-.524-.865-.524h-7.777c-.519 0-.864.209-.864.524 0 .315.345.525.864.525h7.777c.519 0 .865-.21.865-.525zM25.007 49.217c-.519 0-.864.156-.864.389v4.666c0 .233.345.388.864.388.518 0 .864-.155.864-.388v-4.666c0-.233-.346-.389-.864-.389zM33.864 49.217c-.518 0-.864.156-.864.389v4.666c0 .233.346.388.864.388.519 0 .864-.155.864-.388v-4.666c0-.233-.345-.389-.864-.389z"/><g><path d="M11.544 58.622c.134.501.764.69 1.574.473l16.202-4.341c.81-.217 1.26-.696 1.126-1.196-.134-.501-.763-.69-1.574-.473l-16.201 4.341c-.81.217-1.261.696-1.127 1.196z"/><path d="M28.425 53.558c.134-.501.763-.69 1.574-.473L46.2 57.426c.81.217 1.261.696 1.127 1.196-.135.501-.764.69-1.574.473l-16.202-4.341c-.81-.217-1.26-.696-1.126-1.196z"/></g></svg>