<svg xmlns="http://www.w3.org/2000/svg" width="60" height="70" viewBox="0, 0, 60, 70"><path d="M57.75 6.5v62c0 .6-.4 1-1 1h-54c-.6 0-1-.4-1-1v-29c0-.6.4-1 1-1s1 .4 1 1v28h52v-60h-52v1c0 .6-.4 1-1 1s-1-.4-1-1v-2c0-.6.4-1 1-1h54c.6 0 1 .4 1 1z"/><path d="M7.75 10.5c.6 0 1 .4 1 1v4c0 .6-.4 1-1 1h-5c-.6 0-1-.4-1-1v-4c0-.6.4-1 1-1h5zm-1 2h-3v2h3v-2z"/><path d="M7.75 30.5c.6 0 1 .4 1 1v5c0 .6-.4 1-1 1h-5c-.6 0-1-.4-1-1v-5c0-.6.4-1 1-1h5zm-1.125 2h-3v3h3v-3z" fill="#FF0400"/><path d="M9.75 17.5c.6 0 1 .4 1 1v10c0 .6-.4 1-1 1h-7c-.6 0-1-.4-1-1v-10c0-.6.4-1 1-1h7zm-1 2h-5v8h5v-8zM51.75 9.619c.6 0 1 .4 1 1v35c0 .6-.4 1-1 1h-4c-.6 0-1-.4-1-1v-35c0-.6.4-1 1-1h4zm-1 22.881h-2v12h2v-12zm0-21h-2v19h2v-19zM43.75 9.5c.6 0 1 .4 1 1v35c0 .6-.4 1-1 1h-4c-.6 0-1-.4-1-1v-35c0-.6.4-1 1-1h4zm-1 23h-2v12h2v-12zm0-21h-2v19h2v-19z"/><path d="M28.75 9.5c.6 0 1 .4 1 1v1h2c.6 0 1 .4 1 1v2h1c.6 0 1 .4 1 1s-.4 1-1 1h-1v2h1c.6 0 1 .4 1 1s-.4 1-1 1h-1v2h1c.6 0 1 .4 1 1s-.4 1-1 1h-1v2c0 .6-.4 1-1 1h-2v1c0 .6-.4 1-1 1s-1-.4-1-1v-1h-2v1c0 .6-.4 1-1 1s-1-.4-1-1v-1h-2v1c0 .6-.4 1-1 1s-1-.4-1-1v-1h-2c-.6 0-1-.4-1-1v-2h-1c-.6 0-1-.4-1-1s.4-1 1-1h1v-2h-1c-.6 0-1-.4-1-1s.4-1 1-1h1v-2h-1c-.6 0-1-.4-1-1s.4-1 1-1h1v-2c0-.6.4-1 1-1h2v-1c0-.6.4-1 1-1s1 .4 1 1v1h2v-1c0-.6.4-1 1-1s1 .4 1 1v1h2v-1c0-.6.4-1 1-1zm2 4h-12v12h12v-12z" fill="#FF0400"/><path d="M31.75 32.5c.6 0 1 .4 1 1v12c0 .6-.4 1-1 1h-14c-.6 0-1-.4-1-1v-12c0-.6.4-1 1-1h14zm-1 2h-12v10h12v-10z"/><path d="M21.75 42.5c-.6 0-1-.4-1-1s.4-1 1-1h6c.6 0 1 .4 1 1s-.4 1-1 1h-6zM21.75 38.5c-.6 0-1-.4-1-1s.4-1 1-1h6c.6 0 1 .4 1 1s-.4 1-1 1h-6zM12.75 37.5c-.6 0-1-.4-1-1v-3c0-.6.4-1 1-1s1 .4 1 1v3c0 .6-.4 1-1 1zM11.75 45.5v-3c0-.6.4-1 1-1s1 .4 1 1v3c0 .6-.4 1-1 1s-1-.4-1-1zM7.75 46.5c-.6 0-1-.4-1-1v-3c0-.6.4-1 1-1s1 .4 1 1v3c0 .6-.4 1-1 1zM43.75 50.5c.6 0 1 .4 1 1v4c0 .6-.4 1-1 1h-36c-.6 0-1-.4-1-1v-4c0-.6.4-1 1-1h36zm-1 2h-34v2h34v-2zM43.75 58.5c.6 0 1 .4 1 1v4c0 .6-.4 1-1 1h-36c-.6 0-1-.4-1-1v-4c0-.6.4-1 1-1h36zm-1 2h-34v2h34v-2zM51.75 60.5c.6 0 1 .4 1 1v2c0 .6-.4 1-1 1s-1-.4-1-1v-2c0-.6.4-1 1-1zM52.75 56.5v2c0 .6-.4 1-1 1s-1-.4-1-1v-2c0-.6.4-1 1-1s1 .4 1 1zM52.75 51.5v2c0 .6-.4 1-1 1s-1-.4-1-1v-2c0-.6.4-1 1-1s1 .4 1 1z"/></svg>