<svg xmlns="http://www.w3.org/2000/svg" width="60" height="70" viewBox="0, 0, 60, 70"><path d="M31.173 52.9c-.243 0-.548-.061-.791-.243l-12.965-7.852H9.322c-.852 0-1.522-.67-1.522-1.522V26.727c0-.852.67-1.522 1.522-1.522h8.095l12.965-7.852a1.384 1.384 0 0 1 1.522 0c.487.244.791.792.791 1.339v32.747c0 .548-.304 1.035-.791 1.339a2.268 2.268 0 0 1-.731.122m-20.33-11.139h7c.305 0 .548.061.791.244l11.018 6.634V21.371l-11.018 6.634c-.243.122-.486.244-.791.244h-7v13.512"/><path d="M38.295 42.066v-3.044c2.313 0 4.2-1.826 4.2-4.139s-1.887-4.139-4.2-4.139v-3.043c4.017 0 7.243 3.226 7.243 7.182 0 3.957-3.226 7.183-7.243 7.183" fill="#FF0400"/><path d="M38.295 49.431v-3.044c6.452 0 11.747-5.113 11.747-11.443 0-6.33-5.234-11.443-11.747-11.443v-3.043c8.156 0 14.791 6.512 14.791 14.486 0 7.974-6.635 14.487-14.791 14.487"/></svg>