<svg xmlns="http://www.w3.org/2000/svg" width="60" height="70" viewBox="0, 0, 60, 70"><path d="M29.606 45.136a4.69 4.69 0 1 1 0 9.381 4.69 4.69 0 0 1 0-9.381z" fill="#FF0400"/><path d="M30.495 36.075c4.453.22 8.437 2.09 11.642 5.143a2.87 2.87 0 1 1-4.061 4.061c-2.266-2.267-5.226-3.483-8.47-3.483-3.243 0-6.203 1.216-8.469 3.483a2.872 2.872 0 0 1-4.061-4.061c3.347-3.347 7.768-5.165 12.53-5.165l.889.022zM31.321 17.483l.073.001c9.135.462 17.569 4.238 24.443 10.77l.026.026a2.931 2.931 0 1 1-4.147 4.146c-12.16-12.16-32.059-12.16-44.22 0a2.931 2.931 0 0 1-4.146 0 2.936 2.936 0 0 1 .016-4.162c7.854-7.61 16.368-10.781 27.955-10.781z"/><path d="M29.606 26.093c7.255.001 13.976 2.763 19.07 7.858a3.032 3.032 0 0 1 0 4.289 3.032 3.032 0 0 1-4.289 0c-3.954-3.954-9.131-6.08-14.781-6.081-5.649.001-10.826 2.127-14.78 6.081a3.032 3.032 0 0 1-4.289 0 3.032 3.032 0 0 1 0-4.289c5.094-5.094 11.815-7.857 19.069-7.858z"/></svg>