<svg xmlns="http://www.w3.org/2000/svg" width="60" height="70" viewBox="0, 0, 60, 70"><path d="M54.497 12.693c1.469 0 2.592 1.123 2.592 2.592v32.839c0 1.469-1.123 2.592-2.592 2.592H4.374c-1.469 0-2.592-1.123-2.592-2.592V15.285c0-1.469 1.123-2.592 2.592-2.592h50.123zm0 1.592H4.374c-.518 0-.864.346-.864.864v32.839c0 .519.346.864.864.864h50.123c.518 0 .864-.345.864-.864V15.149c0-.518-.346-.864-.864-.864z"/><path d="M53.632 17.014c0-.519-.345-.865-.864-.865H6.103c-.519 0-.864.346-.864.865v29.382c0 .518.345.864.864.864h37.159c.519 0 .864-.346.864-.864 0-.519-.345-.865-.864-.865H6.967V17.878h44.937v27.653h-1.728c-.519 0-.864.346-.864.865 0 .518.345.864.864.864h2.592c.519 0 .864-.346.864-.864V17.014z"/><path d="M47.583 46.396c0-.519-.345-.865-.864-.865-.518 0-.864.346-.864.865v.864c0 .518.346.864.864.864.519 0 .864-.346.864-.864v-.864z" fill="#FF0400"/><path d="M25.007 49.217c-.519 0-.864.156-.864.389v4.666c0 .233.345.388.864.388.518 0 .864-.155.864-.388v-4.666c0-.233-.346-.389-.864-.389zM33.864 49.217c-.518 0-.864.156-.864.389v4.666c0 .233.346.388.864.388.519 0 .864-.155.864-.388v-4.666c0-.233-.345-.389-.864-.389z"/><path d="M11.544 58.622c.134.501.764.69 1.574.473l16.202-4.341c.81-.217 1.26-.696 1.126-1.196-.134-.501-.763-.69-1.574-.473l-16.201 4.341c-.81.217-1.261.696-1.127 1.196z"/><path d="M28.425 53.558c.134-.501.763-.69 1.574-.473L46.2 57.426c.81.217 1.261.696 1.127 1.196-.135.501-.764.69-1.574.473l-16.202-4.341c-.81-.217-1.26-.696-1.126-1.196z"/><path d="M29.436 20.375c-6.282 0-11.374 5.091-11.374 11.373 0 6.281 5.092 11.374 11.374 11.374 6.281 0 11.373-5.093 11.373-11.374 0-6.282-5.093-11.373-11.373-11.373zm-1.54 16.778L22.7 36.4v-4.217h5.196v4.97zm0-5.68H22.7v-4.218l5.196-.752v4.97zm7.68 6.792l-6.97-1.009v-5.073h6.97v6.082zm0-6.792h-6.97v-5.074l6.97-1.009v6.083z" fill="#FF0400"/></svg>