<?xml version="1.0" encoding="UTF-8"?>
<!DOCTYPE svg PUBLIC "-//W3C//DTD SVG 1.1//EN" "http://www.w3.org/Graphics/SVG/1.1/DTD/svg11.dtd">
<svg version="1.1" xmlns="http://www.w3.org/2000/svg" xmlns:xlink="http://www.w3.org/1999/xlink" x="0" y="0" width="64" height="80" viewBox="0, 0, 64, 80">
  <g id="Layer_1">
    <path d="M45.089,68 C47.248,67.998 48.998,66.248 49,64.089 L49,11.911 C48.998,9.752 47.248,8.002 45.089,8 L20.911,8 C18.752,8.002 17.002,9.752 17,11.911 L17,64.089 C17.002,66.248 18.752,67.998 20.911,68 z M19,64.089 L19,11.911 C19.001,10.856 19.856,10.001 20.911,10 L45.089,10 C46.144,10.001 46.999,10.856 47,11.911 L47,64.089 C46.999,65.144 46.144,65.999 45.089,66 L20.911,66 C19.856,65.999 19.001,65.144 19,64.089 z" fill="#000000"/>
    <path d="M22,26 L44,26 C44.552,26 45,25.552 45,25 L45,13 C45,12.448 44.552,12 44,12 L22,12 C21.448,12 21,12.448 21,13 L21,25 C21,25.552 21.448,26 22,26 z M43,24 L23,24 L23,20 L43,20 z M23,14 L43,14 L43,18 L23,18 z" fill="#000000"/>
    <path d="M36.5,45.937 L35.5,47.668 C37.46,48.8 38.415,51.106 37.83,53.292 C37.244,55.478 35.263,56.998 33,56.998 C30.737,56.998 28.756,55.478 28.17,53.292 C27.585,51.106 28.54,48.8 30.5,47.668 L29.5,45.937 C26.756,47.521 25.419,50.751 26.239,53.811 C27.059,56.871 29.832,58.999 33,58.999 C36.168,58.999 38.941,56.871 39.761,53.811 C40.581,50.751 39.244,47.521 36.5,45.937 z" fill="#000000"/>
    <path d="M32,43 L34,43 L34,52 L32,52 z" fill="#FF0400"/>
    <path d="M28,62 L31,62 L31,64 L28,64 z" fill="#000000"/>
    <path d="M35,62 L38,62 L38,64 L35,64 z" fill="#000000"/>
    <path d="M33,28 C31.182,28.007 29.597,29.239 29.142,31 L24,31 L24,33 L29.142,33 C29.591,34.764 31.18,35.999 33,35.999 C34.82,35.999 36.409,34.764 36.858,33 L42,33 L42,31 L36.858,31 C36.403,29.239 34.818,28.007 33,28 z M33,34 C31.895,34 31,33.105 31,32 C31,30.895 31.895,30 33,30 C34.105,30 35,30.895 35,32 C35,33.105 34.105,34 33,34 z" fill="#000000"/>
    <text transform="matrix(1, 0, 0, 1, 24.816, 83)">
      <tspan x="-24.816" y="1" font-family="Helvetica" font-size="5" fill="#000000">from the Noun Project</tspan>
    </text>
  </g>
</svg>
