<svg xmlns="http://www.w3.org/2000/svg" width="400" height="80" viewBox="0, 0, 400, 80"><path d="M3 9h227.612v58H3V9z" fill="#FF0400"/><path d="M19.374 16.3h24.9q3.6 0 6.18 2.55 2.58 2.55 2.58 6.15v9.54q0 3.6-2.58 6.18-2.58 2.58-6.18 2.58h-24.48v7.02h33.24v9.18h-42.42V42.76q0-3.6 2.58-6.15 2.58-2.55 6.18-2.55h24.48v-8.58h-24.06v3.48h-9.18V25q0-3.6 2.58-6.15 2.58-2.55 6.18-2.55zM60.354 16.36h34.26q3.66 0 6.3 2.61 2.64 2.61 2.64 6.27V36.4q0 3.66-2.64 6.27-2.64 2.61-6.3 2.61l-24.96.06q.18 0 .18.36-.12 0-.18-.06V59.5h-9.3zm9.3 9.3v10.26h24.48V25.66zM162.774 16.3h9.84l-15.72 43.2h-7.14l-10.2-27.78-3.84 10.56-6.3 17.22h-7.14l-15.72-43.2h9.9l9.42 25.74 1.5-4.02 7.92-21.72h8.58l9.48 25.74 1.5-4.02zM212.334 45.1V16.3h9.42v43.2h-9.6l-24.3-28.92V59.5h-9.3V16.3h9.6zM283.266 25.18v4.08h-9.42v-3.6h-24.48v24.48h24.48v-6.48h-9.36V34.3h18.78v16.32q0 3.66-2.61 6.27-2.61 2.61-6.33 2.61h-25.38q-3.72 0-6.3-2.58-2.58-2.58-2.58-6.3V25.18q0-3.72 2.58-6.3 2.58-2.58 6.3-2.58h25.38q3.72 0 6.33 2.61t2.61 6.27zM316.146 24.7q3.6 0 6.15 2.58 2.55 2.58 2.55 6.12v13.32h-26.1v3.6h26.1v9.18h-26.58q-3.54 0-6.12-2.58t-2.58-6.12V33.4q0-3.54 2.58-6.12t6.12-2.58zm-17.4 13.98h16.92v-4.8h-16.92zM357.726 24.7q3.6 0 6.15 2.58 2.55 2.58 2.55 6.12v26.1h-26.58q-3.6 0-6.15-2.58-2.55-2.58-2.55-6.12V37.48h26.1v-3.6h-26.1V24.7zm-.48 25.62v-4.8h-16.92v4.8zM379.926 24.7h19.2v9.18h-18.78V59.5h-9.18V33.4q0-3.54 2.58-6.12t6.18-2.58z" fill="#FFF"/></svg>