<svg xmlns="http://www.w3.org/2000/svg" width="60" height="70" viewBox="0, 0, 60, 70"><path d="M43.212 13.562l1.171-1.17c.351-.352.351-.82 0-1.171l-3.512-3.512c-.351-.351-.82-.351-1.171 0L3.409 44c-.351.351-.351.819 0 1.17l3.512 3.512c.352.351.82.351 1.171 0l1.171-1.17c.351-.352.819-.352 1.17 0 .352.351.352.819 0 1.17l-1.17 1.171c-.351.351-.351.819 0 1.171l2.341 2.341c.351.351.82.351 1.171 0l1.17-1.171c.352-.351.82-.351 1.171 0 .351.351.351.82 0 1.171l-1.171 1.171c-.351.351-.351.819 0 1.17l5.268 5.268c.352.351.82.351 1.171 0l12.877-12.877c.352-.351.352-.82 0-1.171l-1.17-1.17c-.351-.352-.351-.82 0-1.171.351-.351.819-.351 1.17 0l1.171 1.171c.351.351.82.351 1.171 0l21.072-21.072c.351-.352.351-.82 0-1.171l-5.268-5.268c-.351-.351-.82-.351-1.171 0l-1.17 1.171c-.352.351-.82.351-1.171 0-.351-.352-.351-.82 0-1.171l1.171-1.171c.351-.351.351-.819 0-1.17l-2.342-2.342c-.351-.351-.819-.351-1.17 0l-1.171 1.171c-.351.351-.82.351-1.171 0-.351-.351-.351-.82 0-1.171z"/><path d="M45.554 15.904c-.996.995-2.517.995-3.512 0-.996-.996-.996-2.517 0-3.512l.585-.586-2.342-2.341-35.12 35.12 2.342 2.341.585-.585c.995-.995 2.517-.995 3.512 0 .995.995.995 2.517 0 3.512l-.585.585 1.17 1.171.586-.585c.995-.995 2.517-.995 3.512 0 .995.995.995 2.517 0 3.512l-.586.585 4.098 4.097 4.097-4.097-1.171-1.171c-.351-.351-.351-.819 0-1.17.352-.352.82-.352 1.171 0l1.171 1.17.585-.585-1.171-1.171c-.351-.351-.351-.819 0-1.17.352-.352.82-.352 1.171 0l1.171 1.17.585-.585-1.171-1.171c-.351-.351-.351-.819 0-1.17.352-.352.82-.352 1.171 0l1.171 1.17.585-.585-1.171-1.171c-.351-.351-.351-.819 0-1.17.352-.352.82-.352 1.171 0l1.171 1.17 1.17-1.17-.585-.586c-.995-.995-.995-2.517 0-3.512.995-.995 2.517-.995 3.512 0l.585.586 1.171-1.171-1.171-1.171c-.351-.351-.351-.819 0-1.17.352-.352.82-.352 1.171 0l1.171 1.17.585-.585-1.171-1.171c-.351-.351-.351-.819 0-1.17.352-.352.82-.352 1.171 0l1.171 1.17.585-.585-1.171-1.171c-.351-.351-.351-.819 0-1.17.352-.352.82-.352 1.171 0l1.171 1.17.585-.585-1.171-1.171c-.351-.351-.351-.819 0-1.17.352-.352.82-.352 1.171 0l1.171 1.17.585-.585-1.17-1.171c-.352-.351-.352-.819 0-1.17.351-.352.819-.352 1.17 0l1.171 1.17.585-.585-1.17-1.171c-.352-.351-.352-.819 0-1.17.351-.352.819-.352 1.17 0l1.171 1.17.585-.585-1.17-1.171c-.352-.351-.352-.819 0-1.17.351-.352.819-.352 1.17 0l1.171 1.17.585-.585-1.17-1.171c-.352-.351-.352-.819 0-1.17.351-.352.819-.352 1.17 0l1.171 1.17.585-.585-1.17-1.171c-.352-.351-.352-.819 0-1.17.351-.352.819-.352 1.17 0l1.171 1.17 3.512-3.512-4.097-4.097-.586.585c-.995.995-2.517.995-3.512 0-.995-.995-.995-2.517 0-3.512l.586-.585-1.171-1.171-.585.586z" fill="#FFF"/><path d="M19.799 54.536c-.351-.352-.82-.352-1.171 0-.351.351-.351.819 0 1.17l.585.586c.352.351.82.351 1.171 0 .351-.352.351-.82 0-1.171l-.585-.585zM50.236 24.098l.586.586c.351.351.819.351 1.17 0 .351-.352.351-.82 0-1.171l-.585-.585c-.351-.352-.82-.352-1.171 0-.351.351-.351.819 0 1.17zM15.116 39.317c.351-.351.82-.351 1.171 0l7.024 7.024c.351.351.351.819 0 1.171l-3.512 3.512c-.351.351-.82.351-1.171 0L11.604 44c-.351-.352-.351-.82 0-1.171l3.512-3.512z"/><path d="M21.555 46.926l-5.854-5.853-2.341 2.341 5.853 5.854 2.342-2.342z" fill="#FFF"/><path d="M20.969 33.464c.352-.352.82-.352 1.171 0l7.024 7.024c.351.351.351.819 0 1.17l-3.512 3.512c-.351.351-.819.351-1.171 0l-7.024-7.024c-.351-.351-.351-.819 0-1.17l3.512-3.512z" fill="#FF0400"/><path d="M27.408 41.073l-5.853-5.853-2.342 2.341 5.854 5.853 2.341-2.341z" fill="#FFF"/><path d="M38.529 15.904c.352-.352.82-.352 1.171 0l7.024 7.024c.351.351.351.819 0 1.17l-3.512 3.512c-.351.351-.819.351-1.17 0l-7.025-7.024c-.351-.351-.351-.819 0-1.17l3.512-3.512z"/><path d="M44.968 23.513l-5.853-5.853-2.342 2.341 5.854 5.853 2.341-2.341z" fill="#FFF"/><path d="M32.676 21.757c.351-.351.82-.351 1.171 0l7.024 7.024c.351.351.351.819 0 1.171l-3.512 3.512c-.351.351-.82.351-1.171 0l-7.024-7.024c-.351-.352-.351-.82 0-1.171l3.512-3.512z"/><path d="M39.115 29.366l-5.854-5.853-2.341 2.341 5.853 5.854 2.342-2.342z" fill="#FFF"/><path d="M26.823 27.61c.351-.351.819-.351 1.17 0l7.024 7.024c.352.351.352.82 0 1.171l-3.512 3.512c-.351.351-.819.351-1.17 0l-7.024-7.024c-.351-.351-.351-.82 0-1.171l3.512-3.512z"/><path d="M33.261 35.22l-5.853-5.854-2.341 2.342 5.853 5.853 2.341-2.341z" fill="#FFF"/></svg>