<svg xmlns="http://www.w3.org/2000/svg" width="100" height="100" viewBox="0, 0, 100, 100"><path d="M39.5 59.5c-11.046 0-20-8.954-20-20s8.954-20 20-20 20 8.954 20 20-8.954 20-20 20z" fill="#fff"/><path d="M39.5 59.5c-11.046 0-20-8.954-20-20s8.954-20 20-20 20 8.954 20 20-8.954 20-20 20z" stroke="#6D5C55" stroke-width="7" fill="none"/><path d="M59.5 59.5l22 22M55.016 63.484l22 22c.917.918 3.67-.12 6.147-2.32 2.476-2.2 3.74-4.728 2.822-5.647l-22-22c-.92-.92-3.673.12-6.15 2.32-2.476 2.2-3.738 4.728-2.82 5.647" fill="#6D5C55"/></svg>