<svg xmlns="http://www.w3.org/2000/svg" width="64" height="80" viewBox="0, 0, 64, 80"><path d="M32 8c.6 0 1 .4 1 1v3h3V9c0-.6.4-1 1-1h8c.6 0 1 .4 1 1v3h3V9c0-.6.4-1 1-1s1 .4 1 1v4c0 .6-.4 1-1 1h-1v2c0 .6-.4 1-1 1s-1-.4-1-1v-2H19v4c0 .6-.4 1-1 1h-2v2h2c.6 0 1 .4 1 1v4c0 .6-.4 1-1 1h-2v2h2c.6 0 1 .4 1 1s-.4 1-1 1h-2v2h2c.6 0 1 .4 1 1s-.4 1-1 1h-2v2h2c.6 0 1 .4 1 1s-.4 1-1 1h-2v2h2c.6 0 1 .4 1 1s-.4 1-1 1h-2v2h2c.6 0 1 .4 1 1v4c0 .6-.4 1-1 1h-2v2h2c.6 0 1 .4 1 1v10h2V22c0-.3.1-.6.4-.8l6-4c.2-.1.4-.2.6-.2h16c.2 0 .4.1.6.2l6 4c.2.2.4.5.4.8v45c0 .3-.2.6-.4.8l-6 4c-.2.1-.4.2-.6.2H28c-.2 0-.4-.1-.6-.2l-6-4c-.2-.2-.4-.5-.4-.8v-1h-3c-.6 0-1-.4-1-1V55h-2c-.6 0-1-.4-1-1v-4c0-.6.4-1 1-1h2v-2h-2c-.6 0-1-.4-1-1V26c0-.6.4-1 1-1h2v-2h-2c-.6 0-1-.4-1-1v-4c0-.6.4-1 1-1h2v-3h-7c-.6 0-1-.4-1-1s.4-1 1-1h13V9c0-.6.4-1 1-1h8zm11.7 11H28.3L23 22.5v44l5.3 3.5v-.1h15.4l5.3-3.5V22.5L43.7 19zm.3-9h-6v2h6v-2zm-13 0h-6v2h6v-2z"/><path d="M36.1 23.1c3.4 0 6.5 1.5 8.5 4C46.1 29 47 31.4 47 34l-.005.254-.095.946c-.3 3-1.8 5.6-4 7.4C41 44.1 38.6 45 36 45c-3.4 0-6.5-1.6-8.4-4-1.5-1.9-2.4-4.3-2.4-6.9v-1.2c.3-3 1.8-5.6 4-7.4 1.9-1.5 4.3-2.4 6.9-2.4zm1.8 14.4c-.3.2-.6.3-1 .4l-.7 5.1c1.7 0 3.3-.6 4.7-1.5l-3-4zm-4-.1l-4.1 3.1c1.2 1.1 2.7 2 4.4 2.3l.7-5c-.4-.1-.7-.2-1-.4zm5.9-2.3c-.1.4-.2.7-.4 1l3.1 4.1a9.8 9.8 0 0 0 2.3-4.4l-5-.7zm-12.8-1c.1 1.8.6 3.4 1.5 4.8l4-3c-.2-.3-.3-.6-.4-1l-5.1-.8zm9-2.1c-1.1 0-2 .9-2 2s.9 2 2 2 2-.9 2-2-.9-2-2-2zm7.5-2.9l-4 3c.2.3.3.6.4 1l5.1.8c-.1-1.8-.6-3.4-1.5-4.8zm-14-1.3a9.8 9.8 0 0 0-2.3 4.4l5 .7c.1-.4.2-.7.4-1l-3.1-4.1zm8.3-2.6l-.7 5c.4.1.7.2 1 .4l4.1-3.1c-1.2-1.1-2.7-2-4.4-2.3zm-2-.2c-1.7 0-3.3.6-4.7 1.5l3 4c.3-.2.6-.3 1-.4l.7-5.1z"/><path d="M47.032 33.882l-.037.372c-.012.548.009.232-.095.946l.095-.946.037-.372zM46 65c.6 0 1-.4 1-1V44c0-.6-.4-1-1-1s-1 .4-1 1v20c0 .6.4 1 1 1zM26 65c.6 0 1-.4 1-1V44c0-.6-.4-1-1-1s-1 .4-1 1v20c0 .6.4 1 1 1zM31 51c0 .6.4 1 1 1h8c.6 0 1-.4 1-1s-.4-1-1-1h-8c-.6 0-1 .4-1 1zM31 56c0 .6.4 1 1 1h8c.6 0 1-.4 1-1s-.4-1-1-1h-8c-.6 0-1 .4-1 1zM31 61c0 .6.4 1 1 1h8c.6 0 1-.4 1-1s-.4-1-1-1h-8c-.6 0-1 .4-1 1z"/><path d="M40 55c.6 0 1 .4 1 1s-.4 1-1 1h-8c-.6 0-1-.4-1-1s.4-1 1-1h8z" fill="#FF0400"/></svg>