<svg xmlns="http://www.w3.org/2000/svg" width="60" height="70" viewBox="0, 0, 60, 70"><path d="M51 3c2.2 0 4 1.8 4 4v56c0 2.2-1.8 4-4 4H9c-2.2 0-4-1.8-4-4V7c0-2.2 1.8-4 4-4h42zm.136 2h-42c-1.1 0-2 .9-2 2v56c0 1.1.9 2 2 2h42c1.1 0 2-.9 2-2V7c0-1.1-.9-2-2-2z"/><path d="M49.7 50.3l1 1c.4.4.4 1 0 1.4-.2.2-.5.3-.7.3-.2 0-.5-.1-.7-.3l-1-1c-.4-.4-.4-1 0-1.4.4-.4 1-.4 1.4 0zM10 53c-.3 0-.5-.1-.7-.3-.4-.4-.4-1 0-1.4l1-1c.4-.4 1-.4 1.4 0 .4.4.4 1 0 1.4l-1 1c-.2.2-.4.3-.7.3zM10.3 9.7l-1-1c-.4-.4-.4-1 0-1.4.4-.4 1-.4 1.4 0l1 1c.4.4.4 1 0 1.4-.2.2-.4.3-.7.3-.3 0-.5-.1-.7-.3zM49 10c-.3 0-.5-.1-.7-.3-.4-.4-.4-1 0-1.4l1-1c.4-.4 1-.4 1.4 0 .4.4.4 1 0 1.4l-1 1c-.2.2-.4.3-.7.3zM47 59c.6 0 1 .4 1 1v2c0 .6-.4 1-1 1s-1-.4-1-1v-1h-7c-.6 0-1-.4-1-1s.4-1 1-1h8zM35 59c.6 0 1 .4 1 1s-.4 1-1 1h-8c-.6 0-1-.4-1-1s.4-1 1-1h8zM14 59c.6 0 1 .4 1 1s-.4 1-1 1h-1c-.6 0-1-.4-1-1s.4-1 1-1h1zM13.6 33.4C12.5 31.1 12 28.6 12 26c0-9.9 8.1-18 18-18s18 8.1 18 18-8.1 18-18 18c-2.6 0-5.1-.5-7.4-1.6-.5-.2-.7-.8-.5-1.3.2-.5.8-.7 1.3-.5 2.1.9 4.3 1.4 6.6 1.4 8.8 0 16-7.2 16-16s-7.2-16-16-16-16 7.2-16 16c0 2.3.5 4.5 1.4 6.6.2.5 0 1.1-.5 1.3-.5.2-1.1 0-1.3-.5z"/><path d="M30 20c-3.3 0-6 2.7-6 6s2.7 6 6 6 6-2.7 6-6-2.7-6-6-6z"/><path d="M26 26c0-2.2 1.8-4 4-4s4 1.8 4 4-1.8 4-4 4-4-1.8-4-4zM41 26c0-6.1-4.9-11-11-11-.6 0-1-.4-1-1s.4-1 1-1c7.2 0 13 5.8 13 13 0 .6-.4 1-1 1s-1-.4-1-1z"/><path d="M21.73 31.033c.815.047.517-.108.97.267l2 2c.4.4.4.9.1 1.3l-8 10.7c-.8 1.1-2.1 1.7-3.5 1.7-2.4 0-4.3-1.9-4.3-4.3 0-1.4.6-2.7 1.7-3.5l10.7-8 .33-.167zm.17 2.267l-10 7.5c-.6.4-.9 1.1-.9 1.9 0 1.3 1 2.3 2.3 2.3.7 0 1.4-.3 1.9-.9l7.5-10-.8-.8z" fill="#FF0400"/><path d="M51 56c0 .6-.4 1-1 1H10c-.6 0-1-.4-1-1s.4-1 1-1h40c.6 0 1 .4 1 1z"/></svg>