<svg xmlns="http://www.w3.org/2000/svg" width="60" height="70" viewBox="0, 0, 60, 70"><path d="M44.685 2.388c1.7 0 3 1.3 3 3v58c0 1.7-1.3 3-3 3h-31c-1.7 0-3-1.3-3-3v-58c0-1.7 1.3-3 3-3h31zm0 2h-31c-.6 0-1 .4-1 1v58c0 .6.4 1 1 1h31c.6 0 1-.4 1-1v-58c0-.6-.4-1-1-1z"/><path d="M41.685 23.388c.6 0 1 .4 1 1v20c0 .6-.4 1-1 1h-4c-.6 0-1-.4-1-1v-20c0-.6.4-1 1-1h4zm-1 2h-2v18h2v-18zM41.685 15.388c.6 0 1 .4 1 1v4c0 .6-.4 1-1 1h-4c-.6 0-1-.4-1-1v-4c0-.6.4-1 1-1h4zm-1 2h-2v2h2v-2zM41.685 7.388c.6 0 1 .4 1 1v4c0 .6-.4 1-1 1h-4c-.6 0-1-.4-1-1v-4c0-.6.4-1 1-1h4zm-1 2h-2v2h2v-2zM41.685 47.388c.6 0 1 .4 1 1v4c0 .6-.4 1-1 1h-4c-.6 0-1-.4-1-1v-4c0-.6.4-1 1-1h4zm-1 2h-2v2h2v-2zM41.685 55.388c.6 0 1 .4 1 1v4c0 .6-.4 1-1 1h-4c-.6 0-1-.4-1-1v-4c0-.6.4-1 1-1h4zm-1 2h-2v2h2v-2z"/><path d="M33.685 7.388c.6 0 1 .4 1 1v8c0 .6-.4 1-1 1h-4c-.6 0-1-.4-1-1v-3h-7c-.6 0-1-.4-1-1v-4c0-.6.4-1 1-1h12zm-1 2h-10v2h7c.6 0 1 .4 1 1v3h2v-6z" fill="#FF0400"/><path d="M33.685 19.388c.6 0 1 .4 1 1v4c0 .6-.4 1-1 1h-4c-.6 0-1-.4-1-1v-4c0-.6.4-1 1-1h4zm-1 1.864h-2v2h2v-2zM33.685 27.388c.6 0 1 .4 1 1v4c0 .6-.4 1-1 1h-4c-.6 0-1-.4-1-1v-4c0-.6.4-1 1-1h4zm-1 1.864h-2v2h2v-2zM33.685 35.388c.6 0 1 .4 1 1v4c0 .6-.4 1-1 1h-4c-.6 0-1-.4-1-1v-4c0-.6.4-1 1-1h4zm-1 1.864h-2v2h2v-2zM33.685 43.388c.6 0 1 .4 1 1v4c0 .6-.4 1-1 1h-4c-.6 0-1-.4-1-1v-4c0-.6.4-1 1-1h4zm-1 1.864h-2v2h2v-2zM25.685 15.388c.6 0 1 .4 1 1v4c0 .6-.4 1-1 1h-4c-.6 0-1-.4-1-1v-4c0-.6.4-1 1-1h4zm-1 1.864h-2v2h2v-2zM25.685 23.388c.6 0 1 .4 1 1v4c0 .6-.4 1-1 1h-4c-.6 0-1-.4-1-1v-4c0-.6.4-1 1-1h4zm-1 1.864h-2v2h2v-2zM25.685 31.388c.6 0 1 .4 1 1v4c0 .6-.4 1-1 1h-4c-.6 0-1-.4-1-1v-4c0-.6.4-1 1-1h4zm-1 1.864h-2v2h2v-2zM25.685 39.388c.6 0 1 .4 1 1v4c0 .6-.4 1-1 1h-4c-.6 0-1-.4-1-1v-4c0-.6.4-1 1-1h4zm-1 1.864h-2v2h2v-2zM25.685 47.388c.6 0 1 .4 1 1v4c0 .6-.4 1-1 1h-4c-.6 0-1-.4-1-1v-4c0-.6.4-1 1-1h4zm-1 1.864h-2v2h2v-2zM25.685 55.388c.6 0 1 .4 1 1v4c0 .6-.4 1-1 1h-4c-.6 0-1-.4-1-1v-4c0-.6.4-1 1-1h4zm-1 1.864h-2v2h2v-2zM15.685 12.388v4c0 .6.4 1 1 1s1-.4 1-1v-4c0-.6-.4-1-1-1s-1 .4-1 1M15.685 20.388v4c0 .6.4 1 1 1s1-.4 1-1v-4c0-.6-.4-1-1-1s-1 .4-1 1M15.685 28.388v4c0 .6.4 1 1 1s1-.4 1-1v-4c0-.6-.4-1-1-1s-1 .4-1 1M15.685 36.388v4c0 .6.4 1 1 1s1-.4 1-1v-4c0-.6-.4-1-1-1s-1 .4-1 1M15.685 44.388v4c0 .6.4 1 1 1s1-.4 1-1v-4c0-.6-.4-1-1-1s-1 .4-1 1M15.685 52.388v4c0 .6.4 1 1 1s1-.4 1-1v-4c0-.6-.4-1-1-1s-1 .4-1 1"/></svg>