<svg xmlns="http://www.w3.org/2000/svg" width="60" height="70" viewBox="0, 0, 60, 70"><path d="M51 3c2.2 0 4 1.8 4 4v56c0 2.2-1.8 4-4 4H9c-2.2 0-4-1.8-4-4V7c0-2.2 1.8-4 4-4h42zm0 2H9c-1.1 0-2 .9-2 2v56c0 1.1.9 2 2 2h42c1.1 0 2-.9 2-2V7c0-1.1-.9-2-2-2z"/><path d="M51 56c0 .6-.4 1-1 1H10c-.6 0-1-.4-1-1s.4-1 1-1h40c.6 0 1 .4 1 1zM49.3 52.7l-1-1c-.4-.4-.4-1 0-1.4.4-.4 1-.4 1.4 0l1 1c.4.4.4 1 0 1.4-.2.2-.5.3-.7.3-.2 0-.5-.1-.7-.3zM10 53c-.3 0-.5-.1-.7-.3-.4-.4-.4-1 0-1.4l1-1c.4-.4 1-.4 1.4 0 .4.4.4 1 0 1.4l-1 1c-.2.2-.4.3-.7.3zM47 59c.6 0 1 .4 1 1v2c0 .6-.4 1-1 1s-1-.4-1-1v-1h-7c-.6 0-1-.4-1-1s.4-1 1-1h8zM35 59c.6 0 1 .4 1 1s-.4 1-1 1h-8c-.6 0-1-.4-1-1s.4-1 1-1h8zM14 59c.6 0 1 .4 1 1s-.4 1-1 1h-1c-.6 0-1-.4-1-1s.4-1 1-1h1zM10.3 9.7l-1-1c-.4-.4-.4-1 0-1.4.4-.4 1-.4 1.4 0l1 1c.4.4.4 1 0 1.4-.2.2-.4.3-.7.3-.3 0-.5-.1-.7-.3zM49 10c-.3 0-.5-.1-.7-.3-.4-.4-.4-1 0-1.4l1-1c.4-.4 1-.4 1.4 0 .4.4.4 1 0 1.4l-1 1c-.2.2-.4.3-.7.3zM37 15c.6 0 1 .4 1 1v1h2c.6 0 1 .4 1 1s-.4 1-1 1h-2v2h2c.6 0 1 .4 1 1s-.4 1-1 1h-2v2h2c.6 0 1 .4 1 1s-.4 1-1 1h-2v2h2c.6 0 1 .4 1 1s-.4 1-1 1h-2v2h2c.6 0 1 .4 1 1s-.4 1-1 1h-2v2h2c.6 0 1 .4 1 1s-.4 1-1 1h-2v2h2c.6 0 1 .4 1 1s-.4 1-1 1h-2v1c0 .6-.4 1-1 1H23c-.6 0-1-.4-1-1v-1h-2c-.6 0-1-.4-1-1s.4-1 1-1h2v-2h-2c-.6 0-1-.4-1-1s.4-1 1-1h2v-2h-2c-.6 0-1-.4-1-1s.4-1 1-1h2v-2h-2c-.6 0-1-.4-1-1s.4-1 1-1h2v-2h-2c-.6 0-1-.4-1-1s.4-1 1-1h2v-2h-2c-.6 0-1-.4-1-1s.4-1 1-1h2v-2h-2c-.6 0-1-.4-1-1s.4-1 1-1h2v-1c0-.6.4-1 1-1h14zm-1 2H24v26h12V17z"/><path d="M27 19c.6 0 1 .4 1 1v14c0 .6-.4 1-1 1s-1-.4-1-1V20c0-.6.4-1 1-1z" fill="#FF0400"/></svg>