<svg xmlns="http://www.w3.org/2000/svg" width="60" height="70" viewBox="0, 0, 60, 70"><path d="M14.343 43.654l.316.03-.012.123-.304-.153z"/><path d="M42.957 3.174c1.7 0 3 1.3 3 3v58c0 1.7-1.3 3-3 3h-27c-1.7 0-3-1.3-3-3v-58c0-1.7 1.3-3 3-3h27zm0 2h-27c-.6 0-1 .4-1 1v58c0 .6.4 1 1 1h27c.6 0 1-.4 1-1v-58c0-.6-.4-1-1-1z"/><path d="M18.882 62.662c0-.871.138-.535-.225-1.069-.4-.4-1-.4-1.4 0l-1 1c-.2.2-.3.4-.3.7 0 .3.1.5.3.7.4.4 1 .4 1.4 0l1-1 .225-.331zM18.882 8.662c0-.871.138-.535-.225-1.069l-1-1c-.4-.4-1-.4-1.4 0-.2.2-.3.4-.3.7 0 .3.1.5.3.7l1 1c.4.4 1 .4 1.4 0l.225-.331zM29.457 7.293c6.9 0 12.5 5.6 12.5 12.5s-5.6 12.5-12.5 12.5-12.5-5.6-12.5-12.5 5.6-12.5 12.5-12.5zm-2 16.5l-5 3.8c1.6 1.4 3.5 2.3 5.6 2.6l.8-6c-.5 0-1-.2-1.4-.4zm4.7-.5c-.4.3-.8.5-1.3.7l-.8 6.2c2.1-.1 4.1-.9 5.7-2.1l-3.6-4.8zm1.575-2.163l-.275.663 3.8 5c1.4-1.6 2.3-3.5 2.6-5.6l-6-.8-.125.737zm-14.556-.737c.1 2.1.9 4.1 2.099 5.7l4.801-3.6c-.3-.4-.5-.8-.701-1.3l-6.199-.8zm10.281-3.1c-1.4 0-2.5 1.1-2.5 2.5s1.1 2.5 2.5 2.5 2.5-1.1 2.5-2.5-1.1-2.5-2.5-2.5zm8.418-3.8l-4.799 3.6c.3.4.5.8.7 1.3l6.199.8c-.099-2.1-.899-4.1-2.1-5.7zm-16.1-.7c-1.399 1.6-2.299 3.5-2.599 5.6l6 .8c0-.5.2-1 .4-1.4l-3.801-5zm7.201-3.5c-2.2.2-4.1.9-5.701 2.1l3.6 4.8c.401-.3.801-.5 1.301-.7l.8-6.2zm2 .1l-.8 6c.5 0 1 .2 1.4.4l5-3.8c-1.6-1.4-3.5-2.3-5.6-2.6zM19.957 42.293v-7c0-.6-.4-1-1-1s-1 .4-1 1v7c0 .6.4 1 1 1s1-.4 1-1zM23.076 48.293c2.8 0 5 2.2 5 5s-2.2 5-5 5-5-2.2-5-5 2.2-5 5-5zm-.119 2c-1.7 0-3 1.3-3 3s1.3 3 3 3 3-1.3 3-3-1.3-3-3-3zM24.957 42.293v-7c0-.6-.4-1-1-1s-1 .4-1 1v7c0 .6.4 1 1 1s1-.4 1-1zM29.957 42.293v-7c0-.6-.4-1-1-1s-1 .4-1 1v7c0 .6.4 1 1 1s1-.4 1-1z"/><path d="M39.957 46.293c.6 0 1 .4 1 1v12c0 .6-.4 1-1 1h-7c-.3 0-.5-.1-.7-.3l-2-2c-.2-.2-.3-.4-.3-.7v-8c0-.3.1-.5.3-.7l2-2c.2-.2.4-.3.7-.3h7zm-1 2h-5.6l-1.4 1.4v7.2l1.4 1.4h5.6v-10z" fill="#FF0400"/><path d="M35.957 53.293c0-.6-.4-1-1-1h-1c-.6 0-1 .4-1 1s.4 1 1 1h1c.6 0 1-.4 1-1zM37.957 56.293c0-.6-.4-1-1-1h-1c-.6 0-1 .4-1 1s.4 1 1 1h1c.6 0 1-.4 1-1zM37.957 50.293c0-.6-.4-1-1-1h-1c-.6 0-1 .4-1 1s.4 1 1 1h1c.6 0 1-.4 1-1zM34.957 42.293v-7c0-.6-.4-1-1-1s-1 .4-1 1v7c0 .6.4 1 1 1s1-.4 1-1zM39.957 42.293v-7c0-.6-.4-1-1-1s-1 .4-1 1v7c0 .6.4 1 1 1s1-.4 1-1zM42.882 62.924l-.225-.331-1-1c-.4-.4-1-.4-1.4 0-.2.2-.3.4-.3.7 0 .3.1.5.3.7l1 1c.4.4 1 .4 1.4 0 .363-.535.225-.198.225-1.069zM42.882 7.662c0-.871.138-.535-.225-1.069-.4-.4-1-.4-1.4 0l-1 1c-.2.2-.3.4-.3.7 0 .3.1.5.3.7.4.4 1 .4 1.4 0l1-1 .225-.331z"/></svg>