<svg xmlns="http://www.w3.org/2000/svg" width="60" height="70" viewBox="0, 0, 60, 70"><path d="M36.522 18.626a.8.8 0 0 0 .566-1.367c-4.104-4.095-10.748-4.095-14.852 0a.8.8 0 1 0 1.133 1.132 8.91 8.91 0 0 1 12.587 0c.15.151.353.235.566.235z"/><path d="M34.291 20.857a.8.8 0 0 0 .566-1.367 7.355 7.355 0 0 0-10.389 0 .8.8 0 1 0 1.132 1.132 5.75 5.75 0 0 1 8.124 0c.15.151.354.235.567.235z"/><path d="M26.998 22.021a.8.8 0 0 0 1.133 1.132 2.167 2.167 0 0 1 3.063 0 .8.8 0 1 0 1.133-1.132 3.773 3.773 0 0 0-5.329 0zM51.211 32.112h-2.133v-.165a2.904 2.904 0 0 0-.852-2.085 2.903 2.903 0 0 0-2.085-.852H13.424a2.943 2.943 0 0 0-2.977 2.937v.165H8.113a2.983 2.983 0 0 0-2.97 2.992v8.199c0 1.644 1.325 3.021 2.97 3.021h2.334v.135a2.966 2.966 0 0 0 2.977 2.967h9.826a2.971 2.971 0 0 0 1.986-.75l3.608-3.218a1.383 1.383 0 0 1 1.836-.002l3.653 3.227c.546.481 1.25.746 1.977.743h9.831a2.932 2.932 0 0 0 2.937-2.967v-.135h2.133c1.645 0 2.971-1.377 2.971-3.021v-8.199a2.984 2.984 0 0 0-2.971-2.992zM8.113 44.723c-.762 0-1.369-.659-1.369-1.42v-8.199a1.38 1.38 0 0 1 1.369-1.39h2.334v11.009zm39.364 1.736a1.334 1.334 0 0 1-1.336 1.366H36.31a1.37 1.37 0 0 1-.915-.34l-3.653-3.229a2.985 2.985 0 0 0-3.964.011l-3.608 3.214a1.372 1.372 0 0 1-.92.344h-9.826a1.365 1.365 0 0 1-1.376-1.366V31.947a1.342 1.342 0 0 1 1.376-1.336h32.717a1.306 1.306 0 0 1 1.336 1.336zm5.104-3.156c0 .761-.608 1.42-1.37 1.42h-2.133V33.714h2.133a1.38 1.38 0 0 1 1.37 1.39z"/><path d="M40.137 33.714H18.428a.8.8 0 1 0 0 1.601h21.709a.8.8 0 1 0 0-1.601z" fill="#FF0400"/></svg>